<svg width="256" height="64" viewBox="0 0 256 64" fill="none" xmlns="http://www.w3.org/2000/svg">
<path d="M79.1705 45V18.8182H94.8693V21.6307H82.3409V30.4773H93.6932V33.2898H82.3409V45H79.1705ZM99.8903 45V25.3636H102.907V45H99.8903ZM101.424 22.0909C100.836 22.0909 100.329 21.8906 99.9031 21.4901C99.4854 21.0895 99.2766 20.608 99.2766 20.0455C99.2766 19.483 99.4854 19.0014 99.9031 18.6009C100.329 18.2003 100.836 18 101.424 18C102.012 18 102.515 18.2003 102.933 18.6009C103.359 19.0014 103.572 19.483 103.572 20.0455C103.572 20.608 103.359 21.0895 102.933 21.4901C102.515 21.8906 102.012 22.0909 101.424 22.0909ZM111.45 33.1875V45H108.433V25.3636H111.348V28.4318H111.604C112.064 27.4347 112.763 26.6335 113.7 26.0284C114.638 25.4148 115.848 25.108 117.331 25.108C118.661 25.108 119.824 25.3807 120.821 25.9261C121.818 26.4631 122.594 27.2812 123.148 28.3807C123.702 29.4716 123.979 30.8523 123.979 32.5227V45H120.962V32.7273C120.962 31.1847 120.561 29.983 119.76 29.1222C118.959 28.2528 117.859 27.8182 116.462 27.8182C115.499 27.8182 114.638 28.027 113.879 28.4446C113.129 28.8622 112.537 29.4716 112.102 30.2727C111.668 31.0739 111.45 32.0455 111.45 33.1875ZM137.725 45.4091C135.833 45.4091 134.201 44.9915 132.828 44.1562C131.465 43.3125 130.412 42.1364 129.671 40.6278C128.938 39.1108 128.571 37.3466 128.571 35.3352C128.571 33.3239 128.938 31.5511 129.671 30.017C130.412 28.4744 131.444 27.2727 132.765 26.4119C134.094 25.5426 135.645 25.108 137.418 25.108C138.441 25.108 139.451 25.2784 140.448 25.6193C141.445 25.9602 142.353 26.5142 143.171 27.2812C143.989 28.0398 144.641 29.0455 145.127 30.2983C145.613 31.5511 145.855 33.0937 145.855 34.9261V36.2045H130.719V33.5966H142.787C142.787 32.4886 142.566 31.5 142.123 30.6307C141.688 29.7614 141.066 29.0753 140.256 28.5724C139.455 28.0696 138.509 27.8182 137.418 27.8182C136.216 27.8182 135.176 28.1165 134.299 28.7131C133.429 29.3011 132.76 30.0682 132.292 31.0142C131.823 31.9602 131.588 32.9744 131.588 34.0568V35.7955C131.588 37.2784 131.844 38.5355 132.355 39.5668C132.875 40.5895 133.596 41.3693 134.516 41.9062C135.436 42.4347 136.506 42.6989 137.725 42.6989C138.517 42.6989 139.233 42.5881 139.873 42.3665C140.52 42.1364 141.078 41.7955 141.547 41.3438C142.016 40.8835 142.378 40.3125 142.634 39.6307L145.549 40.4489C145.242 41.4375 144.726 42.3068 144.002 43.0568C143.277 43.7983 142.382 44.3778 141.317 44.7955C140.252 45.2045 139.054 45.4091 137.725 45.4091Z" fill="#D7D9E1"/>
<path d="M171.615 18.8182V45H168.547L154.28 24.4432H154.025V45H150.854V18.8182H153.922L168.24 39.4261H168.496V18.8182H171.615ZM177.55 45V25.3636H180.567V45H177.55ZM179.085 22.0909C178.496 22.0909 177.989 21.8906 177.563 21.4901C177.146 21.0895 176.937 20.608 176.937 20.0455C176.937 19.483 177.146 19.0014 177.563 18.6009C177.989 18.2003 178.496 18 179.085 18C179.673 18 180.175 18.2003 180.593 18.6009C181.019 19.0014 181.232 19.483 181.232 20.0455C181.232 20.608 181.019 21.0895 180.593 21.4901C180.175 21.8906 179.673 22.0909 179.085 22.0909ZM194.02 52.7727C192.562 52.7727 191.309 52.5852 190.261 52.2102C189.213 51.8438 188.339 51.358 187.64 50.7528C186.95 50.1563 186.4 49.517 185.991 48.8352L188.395 47.1477C188.667 47.5057 189.012 47.9148 189.43 48.375C189.848 48.8438 190.419 49.2486 191.143 49.5895C191.876 49.9389 192.835 50.1136 194.02 50.1136C195.605 50.1136 196.913 49.7301 197.944 48.9631C198.975 48.196 199.491 46.9943 199.491 45.358V41.3693H199.235C199.014 41.7273 198.699 42.1705 198.289 42.6989C197.889 43.2188 197.309 43.6832 196.551 44.0923C195.801 44.4929 194.787 44.6932 193.508 44.6932C191.923 44.6932 190.5 44.3182 189.238 43.5682C187.985 42.8182 186.993 41.7273 186.26 40.2955C185.535 38.8636 185.173 37.125 185.173 35.0795C185.173 33.0682 185.527 31.3168 186.234 29.8253C186.941 28.3253 187.926 27.1662 189.187 26.348C190.449 25.5213 191.906 25.108 193.559 25.108C194.838 25.108 195.852 25.321 196.602 25.7472C197.36 26.1648 197.94 26.642 198.341 27.179C198.75 27.7074 199.065 28.142 199.287 28.483H199.593V25.3636H202.508V45.5625C202.508 47.25 202.125 48.6222 201.358 49.679C200.599 50.7443 199.576 51.5241 198.289 52.0185C197.011 52.5213 195.588 52.7727 194.02 52.7727ZM193.917 41.983C195.127 41.983 196.15 41.706 196.985 41.152C197.821 40.598 198.456 39.8011 198.89 38.7614C199.325 37.7216 199.542 36.4773 199.542 35.0284C199.542 33.6136 199.329 32.3651 198.903 31.2827C198.477 30.2003 197.846 29.3523 197.011 28.7386C196.176 28.125 195.145 27.8182 193.917 27.8182C192.639 27.8182 191.574 28.142 190.721 28.7898C189.877 29.4375 189.243 30.3068 188.816 31.3977C188.399 32.4886 188.19 33.6989 188.19 35.0284C188.19 36.392 188.403 37.598 188.829 38.6463C189.264 39.6861 189.903 40.5043 190.747 41.1009C191.599 41.6889 192.656 41.983 193.917 41.983ZM211.048 33.1875V45H208.031V18.8182H211.048V28.4318H211.304C211.764 27.4176 212.454 26.6122 213.375 26.0156C214.304 25.4105 215.539 25.108 217.082 25.108C218.42 25.108 219.592 25.3764 220.598 25.9134C221.603 26.4418 222.383 27.2557 222.937 28.3551C223.5 29.446 223.781 30.8352 223.781 32.5227V45H220.764V32.7273C220.764 31.1676 220.359 29.9616 219.549 29.1094C218.748 28.2486 217.636 27.8182 216.213 27.8182C215.224 27.8182 214.338 28.027 213.554 28.4446C212.778 28.8622 212.164 29.4716 211.713 30.2727C211.27 31.0739 211.048 32.0455 211.048 33.1875ZM237.84 25.3636V27.9205H227.664V25.3636H237.84ZM230.63 20.6591H233.647V39.375C233.647 40.2273 233.771 40.8665 234.018 41.2926C234.273 41.7102 234.597 41.9915 234.989 42.1364C235.39 42.2727 235.812 42.3409 236.255 42.3409C236.587 42.3409 236.86 42.3239 237.073 42.2898C237.286 42.2472 237.457 42.2131 237.585 42.1875L238.198 44.8977C237.994 44.9744 237.708 45.0511 237.342 45.1278C236.975 45.2131 236.511 45.2557 235.948 45.2557C235.096 45.2557 234.261 45.0724 233.442 44.706C232.633 44.3395 231.96 43.7812 231.423 43.0312C230.894 42.2812 230.63 41.3352 230.63 40.1932V20.6591Z" fill="#B1A18F"/>
<rect x="8" y="12" width="8" height="40" fill="#D7D9E1"/>
<rect x="48" y="12" width="8" height="40" fill="#D7D9E1"/>
<rect x="16" y="44" width="8" height="8" fill="#D7D9E1"/>
<rect x="16" y="12" width="8" height="8" fill="#D7D9E1"/>
<rect x="40" y="12" width="8" height="8" fill="#D7D9E1"/>
<rect x="26" y="26" width="12" height="12" fill="#B1A18F"/>
<rect x="40" y="44" width="8" height="8" fill="#D7D9E1"/>
</svg>
