<svg width="128" height="128" viewBox="0 0 128 128" fill="none" xmlns="http://www.w3.org/2000/svg">
<rect x="16" y="2" width="96" height="14" rx="2" fill="#886F69"/>
<rect x="36" y="18" width="56" height="16" fill="#D2DCE9" fill-opacity="0.15" stroke="#708197" stroke-width="4"/>
<rect x="15" y="34" width="98" height="90" rx="4" fill="#D2DCE9" fill-opacity="0.15" stroke="#708197" stroke-width="4"/>
<rect x="38" y="32" width="52" height="4" fill="#DEDEDE" fill-opacity="0.5"/>
<rect x="94" y="16" width="4" height="4" fill="#708197"/>
<rect x="30" y="16" width="4" height="4" fill="#708197"/>
<rect x="21" y="40" width="86" height="78" rx="4" fill="#A8B6C1" fill-opacity="0.1"/>
<rect x="21" y="68" width="86" height="50" rx="4" fill="url(#paint0_linear_3_2)"/>
<rect x="22" y="69" width="84" height="48" rx="3" stroke="white" stroke-opacity="0.25" stroke-width="2"/>
<rect x="38" y="16" width="52" height="10" fill="#886F69"/>
<rect x="38" y="16" width="52" height="4" fill="#DEDEDE" fill-opacity="0.5"/>
<rect x="29" y="106" width="70" height="8" rx="2" fill="white" fill-opacity="0.5"/>
<defs>
<linearGradient id="paint0_linear_3_2" x1="91.9058" y1="68" x2="41.4658" y2="122.932" gradientUnits="userSpaceOnUse">
<stop stop-color="#F3CF41"/>
<stop offset="0.5" stop-color="#F3A280"/>
<stop offset="1" stop-color="#F375BF"/>
</linearGradient>
</defs>
</svg>
