<svg width="512" height="128" viewBox="0 0 512 128" fill="none" xmlns="http://www.w3.org/2000/svg">
<g clip-path="url(#clip0_13_42)">
<rect x="16" y="2" width="96" height="14" rx="2" fill="#886F69"/>
<rect x="36" y="18" width="56" height="16" fill="#D2DCE9" fill-opacity="0.15" stroke="#708197" stroke-width="4"/>
<rect x="15" y="34" width="98" height="90" rx="4" fill="#D2DCE9" fill-opacity="0.15" stroke="#708197" stroke-width="4"/>
<rect x="38" y="32" width="52" height="4" fill="#DEDEDE" fill-opacity="0.5"/>
<rect x="94" y="16" width="4" height="4" fill="#708197"/>
<rect x="30" y="16" width="4" height="4" fill="#708197"/>
<rect x="21" y="40" width="86" height="78" rx="4" fill="#A8B6C1" fill-opacity="0.1"/>
<rect x="21" y="68" width="86" height="50" rx="4" fill="url(#paint0_linear_13_42)"/>
<rect x="22" y="69" width="84" height="48" rx="3" stroke="white" stroke-opacity="0.25" stroke-width="2"/>
<rect x="38" y="16" width="52" height="10" fill="#886F69"/>
<rect x="38" y="16" width="52" height="4" fill="#DEDEDE" fill-opacity="0.5"/>
<rect x="29" y="106" width="70" height="8" rx="2" fill="white" fill-opacity="0.5"/>
<path d="M176.965 109.488C171.013 109.488 165.516 108.413 160.473 106.264C155.513 104.032 151.173 101.097 147.453 97.46L153.653 90.268C156.712 93.3267 160.267 95.8067 164.317 97.708C168.451 99.5267 172.832 100.436 177.461 100.436C183.083 100.436 187.423 99.2373 190.481 96.84C193.623 94.4427 195.193 91.3427 195.193 87.54C195.193 84.6467 194.532 82.332 193.209 80.596C191.969 78.86 190.233 77.4133 188.001 76.256C185.852 75.0987 183.372 73.9413 180.561 72.784L168.905 67.7C166.177 66.5427 163.449 65.096 160.721 63.36C158.076 61.624 155.844 59.4333 154.025 56.788C152.207 54.06 151.297 50.712 151.297 46.744C151.297 42.6107 152.413 38.932 154.645 35.708C156.96 32.4013 160.143 29.8387 164.193 28.02C168.244 26.1187 172.832 25.168 177.957 25.168C183.083 25.168 187.795 26.1187 192.093 28.02C196.392 29.8387 200.029 32.236 203.005 35.212L197.549 41.908C194.904 39.5107 191.969 37.6507 188.745 36.328C185.521 34.9227 181.801 34.22 177.585 34.22C172.873 34.22 169.071 35.2947 166.177 37.444C163.284 39.5107 161.837 42.404 161.837 46.124C161.837 48.6867 162.54 50.7947 163.945 52.448C165.433 54.1013 167.293 55.4653 169.525 56.54C171.757 57.6147 174.031 58.648 176.345 59.64L187.753 64.6C191.143 65.9227 194.201 67.5347 196.929 69.436C199.657 71.2547 201.807 73.528 203.377 76.256C204.948 78.984 205.733 82.332 205.733 86.3C205.733 90.5987 204.576 94.5253 202.261 98.08C199.947 101.552 196.64 104.321 192.341 106.388C188.043 108.455 182.917 109.488 176.965 109.488ZM216.721 108V47.736H225.153L226.021 61.996H226.393C229.534 57.1187 233.42 53.2747 238.049 50.464C242.678 47.6533 247.762 46.248 253.301 46.248C255.533 46.248 257.6 46.4547 259.501 46.868C261.485 47.1987 263.386 47.8187 265.205 48.728L262.849 57.532C260.782 56.788 259.005 56.2507 257.517 55.92C256.029 55.5893 254.086 55.424 251.689 55.424C247.142 55.424 242.761 56.7467 238.545 59.392C234.412 61.9547 230.526 66.3773 226.889 72.66V108H216.721ZM300.992 109.488C294.71 109.488 289.047 108.248 284.004 105.768C279.044 103.288 275.118 99.692 272.224 94.98C269.414 90.268 268.008 84.6053 268.008 77.992C268.008 71.2133 269.538 65.468 272.596 60.756C275.655 56.044 279.706 52.448 284.748 49.968C289.874 47.488 295.495 46.248 301.612 46.248C306.572 46.248 310.83 47.116 314.384 48.852C318.022 50.588 321.08 52.6547 323.56 55.052L318.476 61.624C315.996 59.4747 313.434 57.78 310.788 56.54C308.143 55.3 305.208 54.68 301.984 54.68C297.355 54.68 293.263 55.672 289.708 57.656C286.154 59.5573 283.384 62.2853 281.4 65.84C279.499 69.312 278.548 73.3627 278.548 77.992C278.548 82.5387 279.499 86.548 281.4 90.02C283.302 93.492 285.988 96.22 289.46 98.204C293.015 100.105 297.107 101.056 301.736 101.056C305.456 101.056 308.846 100.312 311.904 98.824C315.046 97.336 317.856 95.5587 320.336 93.492L324.924 100.064C321.618 103.04 317.898 105.355 313.764 107.008C309.714 108.661 305.456 109.488 300.992 109.488Z" fill="#708197"/>
<path d="M351.784 109.488C347.237 109.488 342.773 108.413 338.392 106.264C334.011 104.115 330.415 100.684 327.604 95.972L334.052 89.648C336.367 93.2853 339.053 96.0133 342.112 97.832C345.253 99.568 348.395 100.436 351.536 100.436C357.323 100.436 361.58 98.9067 364.308 95.848C367.036 92.7067 368.4 87.788 368.4 81.092V35.212H334.3V26.532H378.692V81.96C378.692 87.0027 377.865 91.632 376.212 95.848C374.559 99.9813 371.748 103.288 367.78 105.768C363.895 108.248 358.563 109.488 351.784 109.488ZM407.536 109.488C403.816 109.488 400.385 108.827 397.244 107.504C394.102 106.099 391.622 104.115 389.804 101.552C387.985 98.9893 387.076 95.9307 387.076 92.376C387.076 85.5973 390.465 80.472 397.244 77C404.022 73.4453 415.182 71.048 430.724 69.808C430.641 67.08 430.062 64.5587 428.988 62.244C427.996 59.9293 426.342 58.1107 424.028 56.788C421.713 55.3827 418.613 54.68 414.728 54.68C412.165 54.68 409.602 55.052 407.04 55.796C404.56 56.4573 402.162 57.3667 399.848 58.524C397.616 59.5987 395.549 60.7147 393.648 61.872L389.68 54.928C391.664 53.6053 394.061 52.2827 396.872 50.96C399.765 49.5547 402.865 48.4387 406.172 47.612C409.478 46.7027 412.909 46.248 416.464 46.248C422.002 46.248 426.549 47.2813 430.104 49.348C433.741 51.4147 436.428 54.308 438.164 58.028C439.982 61.6653 440.892 66.0053 440.892 71.048V108H432.584L431.716 99.816H431.344C428.037 102.461 424.317 104.735 420.184 106.636C416.05 108.537 411.834 109.488 407.536 109.488ZM410.264 101.304C413.736 101.304 417.166 100.519 420.556 98.948C423.945 97.3773 427.334 95.1867 430.724 92.376V76.504C422.126 77.248 415.348 78.2813 410.388 79.604C405.51 80.9267 402.038 82.6213 399.972 84.688C397.988 86.672 396.996 88.9867 396.996 91.632C396.996 93.864 397.616 95.724 398.856 97.212C400.096 98.6173 401.708 99.6507 403.692 100.312C405.758 100.973 407.949 101.304 410.264 101.304ZM454.607 108V47.736H463.039L463.907 61.996H464.279C467.42 57.1187 471.306 53.2747 475.935 50.464C480.564 47.6533 485.648 46.248 491.187 46.248C493.419 46.248 495.486 46.4547 497.387 46.868C499.371 47.1987 501.272 47.8187 503.091 48.728L500.735 57.532C498.668 56.788 496.891 56.2507 495.403 55.92C493.915 55.5893 491.972 55.424 489.575 55.424C485.028 55.424 480.647 56.7467 476.431 59.392C472.298 61.9547 468.412 66.3773 464.775 72.66V108H454.607Z" fill="url(#paint1_linear_13_42)"/>
</g>
<defs>
<linearGradient id="paint0_linear_13_42" x1="91.9058" y1="68" x2="41.4658" y2="122.932" gradientUnits="userSpaceOnUse">
<stop stop-color="#F3CF41"/>
<stop offset="0.5" stop-color="#F3A280"/>
<stop offset="1" stop-color="#F375BF"/>
</linearGradient>
<linearGradient id="paint1_linear_13_42" x1="446.358" y1="-1.01563e-06" x2="337.935" y2="200.589" gradientUnits="userSpaceOnUse">
<stop stop-color="#F3CF41"/>
<stop offset="0.5" stop-color="#F3A280"/>
<stop offset="1" stop-color="#F375BF"/>
</linearGradient>
<clipPath id="clip0_13_42">
<rect width="512" height="128" rx="2" fill="white"/>
</clipPath>
</defs>
</svg>
